{
  "accessors": [
    {
      "bufferView": 2,
      "componentType": 5126,
      "count": 2438,
      "max": [
        21.22213363647461,
        145.51255798339844,
        13.79193115234375
      ],
      "min": [
        -190.66371154785156,
        -13.849052429199219,
        -59.53340148925781
      ],
      "type": "VEC3"
    },
    {
      "bufferView": 2,
      "byteOffset": 29256,
      "componentType": 5126,
      "count": 2438,
      "type": "VEC3"
    },
    {
      "bufferView": 3,
      "componentType": 5126,
      "count": 2438,
      "type": "VEC4"
    },
    {
      "bufferView": 1,
      "componentType": 5126,
      "count": 2438,
      "type": "VEC2"
    },
    {
      "bufferView": 0,
      "componentType": 5125,
      "count": 6564,
      "type": "SCALAR"
    },
    {
      "bufferView": 2,
      "byteOffset": 58512,
      "componentType": 5126,
      "count": 210,
      "max": [
        27.407196044921875,
        151.482666015625,
        -16.234304428100586
      ],
      "min": [
        -193.95217895507813,
        -19.180999755859375,
        -46.68212890625
      ],
      "type": "VEC3"
    },
    {
      "bufferView": 2,
      "byteOffset": 61032,
      "componentType": 5126,
      "count": 210,
      "type": "VEC3"
    },
    {
      "bufferView": 3,
      "byteOffset": 39008,
      "componentType": 5126,
      "count": 210,
      "type": "VEC4"
    },
    {
      "bufferView": 1,
      "byteOffset": 19504,
      "componentType": 5126,
      "count": 210,
      "type": "VEC2"
    },
    {
      "bufferView": 0,
      "byteOffset": 26256,
      "componentType": 5125,
      "count": 456,
      "type": "SCALAR"
    },
    {
      "bufferView": 2,
      "byteOffset": 63552,
      "componentType": 5126,
      "count": 324,
      "max": [
        -24.359394073486328,
        149.18202209472656,
        -5.657839775085449
      ],
      "min": [
        -188.0745391845703,
        -14.533073425292969,
        -16.23433494567871
      ],
      "type": "VEC3"
    },
    {
      "bufferView": 2,
      "byteOffset": 67440,
      "componentType": 5126,
      "count": 324,
      "type": "VEC3"
    },
    {
      "bufferView": 3,
      "byteOffset": 42368,
      "componentType": 5126,
      "count": 324,
      "type": "VEC4"
    },
    {
      "bufferView": 1,
      "byteOffset": 21184,
      "componentType": 5126,
      "count": 324,
      "type": "VEC2"
    },
    {
      "bufferView": 0,
      "byteOffset": 28080,
      "componentType": 5125,
      "count": 582,
      "type": "SCALAR"
    },
    {
      "bufferView": 2,
      "byteOffset": 71328,
      "componentType": 5126,
      "count": 52,
      "max": [
        -35.317466735839844,
        138.22396850585938,
        -5.657839775085449
      ],
      "min": [
        -177.116455078125,
        -3.5750112533569336,
        -5.657938480377197
      ],
      "type": "VEC3"
    },
    {
      "bufferView": 2,
      "byteOffset": 71952,
      "componentType": 5126,
      "count": 52,
      "type": "VEC3"
    },
    {
      "bufferView": 1,
      "byteOffset": 23776,
      "componentType": 5126,
      "count": 52,
      "type": "VEC2"
    },
    {
      "bufferView": 0,
      "byteOffset": 30408,
      "componentType": 5125,
      "count": 156,
      "type": "SCALAR"
    },
    {
      "bufferView": 2,
      "byteOffset": 72576,
      "componentType": 5126,
      "count": 392,
      "max": [
        72.9350814819336,
        72.9350814819336,
        0.6781149506568909
      ],
      "min": [
        -72.9350814819336,
        -72.9350814819336,
        0.0
      ],
      "type": "VEC3"
    },
    {
      "bufferView": 2,
      "byteOffset": 77280,
      "componentType": 5126,
      "count": 392,
      "type": "VEC3"
    },
    {
      "bufferView": 1,
      "byteOffset": 24192,
      "componentType": 5126,
      "count": 392,
      "type": "VEC2"
    },
    {
      "bufferView": 0,
      "byteOffset": 31032,
      "componentType": 5125,
      "count": 1728,
      "type": "SCALAR"
    },
    {
      "bufferView": 2,
      "byteOffset": 81984,
      "componentType": 5126,
      "count": 1580,
      "max": [
        12.868270874023438,
        141.41981506347656,
        9.623817443847656
      ],
      "min": [
        -84.65323638916016,
        8.325800895690918,
        -4.618875503540039
      ],
      "type": "VEC3"
    },
    {
      "bufferView": 2,
      "byteOffset": 100944,
      "componentType": 5126,
      "count": 1580,
      "type": "VEC3"
    },
    {
      "bufferView": 3,
      "byteOffset": 47552,
      "componentType": 5126,
      "count": 1580,
      "type": "VEC4"
    },
    {
      "bufferView": 1,
      "byteOffset": 27328,
      "componentType": 5126,
      "count": 1580,
      "type": "VEC2"
    },
    {
      "bufferView": 0,
      "byteOffset": 37944,
      "componentType": 5125,
      "count": 5238,
      "type": "SCALAR"
    },
    {
      "bufferView": 5,
      "componentType": 5126,
      "count": 101,
      "max": [
        3.3333332538604736
      ],
      "min": [
        0.0
      ],
      "type": "SCALAR"
    },
    {
      "bufferView": 4,
      "componentType": 5126,
      "count": 101,
      "type": "VEC4"
    },
    {
      "bufferView": 5,
      "byteOffset": 404,
      "componentType": 5126,
      "count": 101,
      "max": [
        3.3333332538604736
      ],
      "min": [
        0.0
      ],
      "type": "SCALAR"
    },
    {
      "bufferView": 4,
      "byteOffset": 1616,
      "componentType": 5126,
      "count": 101,
      "type": "VEC4"
    }
  ],
  "animations": [
    {
      "channels": [
        {
          "sampler": 0,
          "target": {
            "node": 7,
            "path": "rotation"
          }
        },
        {
          "sampler": 1,
          "target": {
            "node": 11,
            "path": "rotation"
          }
        }
      ],
      "name": "Take 001",
      "samplers": [
        {
          "input": 28,
          "interpolation": "LINEAR",
          "output": 29
        },
        {
          "input": 30,
          "interpolation": "LINEAR",
          "output": 31
        }
      ]
    }
  ],
  "asset": {
    "generator": "fab-model-conversion",
    "version": "2.0"
  },
  "bufferViews": [
    {
      "buffer": 0,
      "byteLength": 58896,
      "target": 34963
    },
    {
      "buffer": 0,
      "byteLength": 39968,
      "byteOffset": 58896,
      "byteStride": 8,
      "target": 34962
    },
    {
      "buffer": 0,
      "byteLength": 119904,
      "byteOffset": 98864,
      "byteStride": 12,
      "target": 34962
    },
    {
      "buffer": 0,
      "byteLength": 72832,
      "byteOffset": 218768,
      "byteStride": 16,
      "target": 34962
    },
    {
      "buffer": 0,
      "byteLength": 3232,
      "byteOffset": 291600
    },
    {
      "buffer": 0,
      "byteLength": 808,
      "byteOffset": 294832
    }
  ],
  "buffers": [
    {
      "byteLength": 295640,
      "uri": "scene.bin"
    }
  ],
  "extensionsUsed": [
    "KHR_materials_emissive_strength"
  ],
  "images": [
    {
      "uri": "textures/Tube010__0_baseColor.png"
    },
    {
      "uri": "textures/Tube010__0_metallicRoughness.png"
    },
    {
      "uri": "textures/Bits_baseColor.png"
    },
    {
      "uri": "textures/Bits_metallicRoughness.png"
    },
    {
      "uri": "textures/Bits_emissive.png"
    },
    {
      "uri": "textures/Bits_normal.png"
    },
    {
      "uri": "textures/Main_baseColor.png"
    },
    {
      "uri": "textures/Main_metallicRoughness.png"
    },
    {
      "uri": "textures/Main_emissive.png"
    },
    {
      "uri": "textures/Main_normal.png"
    }
  ],
  "materials": [
    {
      "doubleSided": true,
      "name": "Tube010__0",
      "pbrMetallicRoughness": {
        "baseColorTexture": {
          "index": 0
        },
        "metallicRoughnessTexture": {
          "index": 1
        }
      }
    },
    {
      "doubleSided": true,
      "emissiveFactor": [
        1.0,
        1.0,
        1.0
      ],
      "emissiveTexture": {
        "index": 4
      },
      "name": "Bits",
      "normalTexture": {
        "index": 5
      },
      "occlusionTexture": {
        "index": 3
      },
      "pbrMetallicRoughness": {
        "baseColorTexture": {
          "index": 2
        },
        "metallicRoughnessTexture": {
          "index": 3
        },
        "roughnessFactor": 0.7556515209553168
      }
    },
    {
      "doubleSided": true,
      "emissiveFactor": [
        1.0,
        1.0,
        1.0
      ],
      "emissiveTexture": {
        "index": 8
      },
      "extensions": {
        "KHR_materials_emissive_strength": {
          "emissiveStrength": 2.5
        }
      },
      "name": "Main",
      "normalTexture": {
        "index": 9
      },
      "occlusionTexture": {
        "index": 7
      },
      "pbrMetallicRoughness": {
        "baseColorTexture": {
          "index": 6
        },
        "metallicRoughnessTexture": {
          "index": 7
        },
        "roughnessFactor": 0.6158075381986879
      }
    },
    {
      "doubleSided": true,
      "name": "Platter_Fabric",
      "pbrMetallicRoughness": {
        "metallicFactor": 0.0,
        "roughnessFactor": 0.6
      }
    }
  ],
  "meshes": [
    {
      "name": "EXPORT_Bits_0",
      "primitives": [
        {
          "attributes": {
            "NORMAL": 1,
            "POSITION": 0,
            "TANGENT": 2,
            "TEXCOORD_0": 3
          },
          "indices": 4,
          "material": 1,
          "mode": 4
        }
      ]
    },
    {
      "name": "EXPORT_Main_0",
      "primitives": [
        {
          "attributes": {
            "NORMAL": 6,
            "POSITION": 5,
            "TANGENT": 7,
            "TEXCOORD_0": 8
          },
          "indices": 9,
          "material": 2,
          "mode": 4
        }
      ]
    },
    {
      "name": "Object035_Main_0",
      "primitives": [
        {
          "attributes": {
            "NORMAL": 11,
            "POSITION": 10,
            "TANGENT": 12,
            "TEXCOORD_0": 13
          },
          "indices": 14,
          "material": 2,
          "mode": 4
        }
      ]
    },
    {
      "name": "Object035_Platter Fabric_0",
      "primitives": [
        {
          "attributes": {
            "NORMAL": 16,
            "POSITION": 15,
            "TEXCOORD_0": 17
          },
          "indices": 18,
          "material": 3,
          "mode": 4
        }
      ]
    },
    {
      "name": "Tube010__0",
      "primitives": [
        {
          "attributes": {
            "NORMAL": 20,
            "POSITION": 19,
            "TEXCOORD_0": 21
          },
          "indices": 22,
          "material": 0,
          "mode": 4
        }
      ]
    },
    {
      "name": "Object036_Bits_0",
      "primitives": [
        {
          "attributes": {
            "NORMAL": 24,
            "POSITION": 23,
            "TANGENT": 25,
            "TEXCOORD_0": 26
          },
          "indices": 27,
          "material": 1,
          "mode": 4
        }
      ]
    }
  ],
  "nodes": [
    {
      "children": [
        1
      ],
      "matrix": [
        1.0,
        0.0,
        0.0,
        0.0,
        0.0,
        2.220446049250313e-16,
        -1.0,
        0.0,
        0.0,
        1.0,
        2.220446049250313e-16,
        0.0,
        0.0,
        0.0,
        0.0,
        1.0
      ],
      "name": "Sketchfab_model"
    },
    {
      "children": [
        2
      ],
      "matrix": [
        0.009999999776482582,
        0.0,
        0.0,
        0.0,
        0.0,
        0.0,
        0.009999999776482582,
        0.0,
        0.0,
        -0.009999999776482582,
        0.0,
        0.0,
        0.0,
        0.0,
        0.0,
        1.0
      ],
      "name": "8520ba1db7214a0983078484640a436f.fbx"
    },
    {
      "children": [
        3
      ],
      "name": "Object_2"
    },
    {
      "children": [
        4,
        7,
        11,
        13
      ],
      "name": "RootNode",
      "rotation": [
        0.0,
        0.0,
        0.0,
        1.0
      ],
      "scale": [
        1.0,
        1.0,
        1.0
      ],
      "translation": [
        0.0,
        0.0,
        0.0
      ]
    },
    {
      "children": [
        5,
        6
      ],
      "name": "EXPORT",
      "rotation": [
        -0.7071067690849304,
        -0.0,
        0.0,
        0.7071067690849304
      ],
      "scale": [
        1.0,
        1.0,
        1.0
      ],
      "translation": [
        271.22900390625,
        71.26720428466797,
        270.39630126953125
      ]
    },
    {
      "mesh": 0,
      "name": "EXPORT_Bits_0"
    },
    {
      "mesh": 1,
      "name": "EXPORT_Main_0"
    },
    {
      "children": [
        8
      ],
      "name": "Object035",
      "rotation": [
        -0.7071067690849304,
        -0.0,
        0.0,
        0.7071067690849304
      ],
      "scale": [
        1.0,
        1.0,
        1.0
      ],
      "translation": [
        165.0120391845703,
        60.32111740112305,
        203.0718231201172
      ]
    },
    {
      "children": [
        9,
        10
      ],
      "matrix": [
        1.0,
        0.0,
        -0.0,
        0.0,
        0.0,
        1.0,
        0.0,
        0.0,
        0.0,
        0.0,
        1.0,
        0.0,
        106.21696472167969,
        -67.32447814941406,
        10.946086883544922,
        1.0
      ],
      "name": "Object_8"
    },
    {
      "mesh": 2,
      "name": "Object035_Main_0"
    },
    {
      "mesh": 3,
      "name": "Object035_Platter Fabric_0"
    },
    {
      "children": [
        12
      ],
      "name": "Tube010",
      "rotation": [
        -0.7071067690849304,
        -0.0,
        0.0,
        0.7071067690849304
      ],
      "scale": [
        1.0,
        1.0,
        1.0
      ],
      "translation": [
        165.01206970214844,
        65.60929107666016,
        203.07183837890625
      ]
    },
    {
      "mesh": 4,
      "name": "Tube010__0"
    },
    {
      "children": [
        14
      ],
      "name": "Object036",
      "rotation": [
        -0.6041936278343201,
        -0.3524840474128723,
        -0.36735546588897705,
        0.6129885911941528
      ],
      "scale": [
        1.0,
        1.0,
        1.0
      ],
      "translation": [
        264.67559814453125,
        73.62684631347656,
        159.18093872070313
      ]
    },
    {
      "children": [
        15
      ],
      "matrix": [
        0.4817544209002133,
        0.8763062694875007,
        0.0,
        0.0,
        -0.8763062694875007,
        0.4817544209002133,
        -0.0,
        0.0,
        -0.0,
        0.0,
        1.0,
        0.0,
        100.61593627929688,
        -47.835609436035156,
        -2.3596410751342773,
        1.0
      ],
      "name": "Object_14"
    },
    {
      "mesh": 5,
      "name": "Object036_Bits_0"
    }
  ],
  "samplers": [
    {
      "magFilter": 9729,
      "minFilter": 9987,
      "wrapS": 10497,
      "wrapT": 10497
    }
  ],
  "scene": 0,
  "scenes": [
    {
      "name": "Sketchfab_Scene",
      "nodes": [
        0
      ]
    }
  ],
  "textures": [
    {
      "sampler": 0,
      "source": 0
    },
    {
      "sampler": 0,
      "source": 1
    },
    {
      "sampler": 0,
      "source": 2
    },
    {
      "sampler": 0,
      "source": 3
    },
    {
      "sampler": 0,
      "source": 4
    },
    {
      "sampler": 0,
      "source": 5
    },
    {
      "sampler": 0,
      "source": 6
    },
    {
      "sampler": 0,
      "source": 7
    },
    {
      "sampler": 0,
      "source": 8
    },
    {
      "sampler": 0,
      "source": 9
    }
  ]
}
